<?xml version="1.0" standalone="no"?><!DOCTYPE svg PUBLIC "-//W3C//DTD SVG 1.1//EN" "http://www.w3.org/Graphics/SVG/1.1/DTD/svg11.dtd"><svg t="1601537905564" class="icon" viewBox="0 0 1024 1024" version="1.1" xmlns="http://www.w3.org/2000/svg" p-id="4713" width="100" height="100" xmlns:xlink="http://www.w3.org/1999/xlink"><defs><style type="text/css"></style></defs><path d="M512.9 502.2c-107.9 0-195.7-87.8-195.7-195.7 0-107.9 87.8-195.7 195.7-195.7v30c-91.4 0-165.7 74.3-165.7 165.7 0 91.4 74.3 165.7 165.7 165.7v30z" p-id="4714" fill="#ffffff"></path><path d="M512.9 502.2c-8.3 0-15-6.7-15-15V125.7c0-8.3 6.7-15 15-15s15 6.7 15 15v361.4c0 8.4-6.7 15.1-15 15.1zM330.9 707.9c-107.9 0-195.7-87.8-195.7-195.7h30c0 91.4 74.3 165.7 165.7 165.7 91.4 0 165.7-74.3 165.7-165.7h30c0 107.9-87.8 195.7-195.7 195.7z" p-id="4715" fill="#ffffff"></path><path d="M510.6 527.2H149.2c-8.3 0-15-6.7-15-15s6.7-15 15-15h361.4c8.3 0 15 6.7 15 15s-6.7 15-15 15z" p-id="4716" fill="#ffffff"></path><path d="M511.4 885.6v-30c91.4 0 165.7-74.3 165.7-165.7s-74.3-165.7-165.7-165.7v-30c107.9 0 195.7 87.8 195.7 195.7s-87.8 195.7-195.7 195.7z" p-id="4717" fill="#ffffff"></path><path d="M511.4 885.6c-8.3 0-15-6.7-15-15V509.2c0-8.3 6.7-15 15-15s15 6.7 15 15v361.4c0 8.3-6.7 15-15 15z" p-id="4718" fill="#ffffff"></path><path d="M888.9 511.6h-30c0-91.4-74.3-165.7-165.7-165.7s-165.7 74.3-165.7 165.7h-30c0-107.9 87.8-195.7 195.7-195.7s195.7 87.7 195.7 195.7z" p-id="4719" fill="#ffffff"></path><path d="M873.9 526.6H512.4c-8.3 0-15-6.7-15-15s6.7-15 15-15h361.4c8.3 0 15 6.7 15 15 0.1 8.2-6.7 15-14.9 15z" p-id="4720" fill="#ffffff"></path></svg>