<?xml version="1.0" standalone="no"?><!DOCTYPE svg PUBLIC "-//W3C//DTD SVG 1.1//EN" "http://www.w3.org/Graphics/SVG/1.1/DTD/svg11.dtd"><svg t="1601460828326" class="icon" viewBox="0 0 1024 1024" version="1.1" xmlns="http://www.w3.org/2000/svg" p-id="1403" xmlns:xlink="http://www.w3.org/1999/xlink" width="100" height="100"><defs><style type="text/css"></style></defs><path d="M746 244.3H203.9c-26.3 0-47.8 21.4-47.8 47.8v246.1c0 8.8 7.1 16 15.9 16s15.9-7.1 15.9-16V292.1c0-8.8 7.1-15.9 15.9-15.9H746c8.8 0 15.9 7.1 15.9 15.9v474.5c0 8.8-7.1 15.9-15.9 15.9H203.9c-8.8 0-15.9-7.1-15.9-15.9V627.1c0-8.8-7.1-15.9-15.9-15.9s-15.9 7.1-15.9 15.9v139.7c0 26.3 21.4 47.8 47.8 47.8h542c26.3 0 47.8-21.5 47.8-47.9V292.1c0-26.3-21.4-47.8-47.8-47.8z" fill="#ffffff" p-id="1404"></path><path d="M360.5 437c0 12-4.8 21.5-14.3 28.5-9.5 6.9-22.8 10.4-39.8 10.4-15.7 0-29.5-2.7-41.6-8v-26.3c9.9 4 18.3 6.8 25.1 8.5 6.9 1.6 13.1 2.5 18.8 2.5 6.8 0 12.1-1.2 15.7-3.6 3.6-2.4 5.5-5.9 5.5-10.6 0-2.6-0.8-4.9-2.4-7-1.6-2-4-4-7.1-5.9-3.1-1.9-9.5-4.9-19-9-9-3.8-15.7-7.5-20.2-11s-8.1-7.6-10.7-12.3c-2.7-4.7-4-10.2-4-16.4 0-11.8 4.4-21.1 13.2-27.8 8.8-6.8 21-10.1 36.5-10.1 7.6 0 14.9 0.8 21.8 2.5s14.2 4 21.7 6.9l-10 22c-7.8-2.9-14.3-5-19.4-6.1-5.1-1.2-10.2-1.7-15.1-1.7-5.9 0-10.4 1.2-13.6 3.7-3.1 2.5-4.7 5.7-4.7 9.8 0 2.5 0.6 4.7 1.9 6.5 1.3 1.9 3.3 3.6 6.1 5.4 2.8 1.7 9.4 4.9 19.7 9.4 13.7 6 23.1 11.9 28.2 17.9 5.1 5.7 7.7 13.1 7.7 21.8zM506.5 340.6v86.3c0 9.9-2.4 18.5-7.3 25.9-4.9 7.4-11.9 13.1-21 17.1-9.2 4-20 5.9-32.5 5.9-18.9 0-33.5-4.4-44-13.2-10.4-8.8-15.7-20.8-15.7-36.1v-86h31v81.7c0 10.3 2.3 17.8 6.8 22.6 4.5 4.8 12.1 7.2 22.6 7.2 10.2 0 17.5-2.4 22.1-7.3 4.6-4.8 6.9-12.4 6.9-22.8v-81.5h31.1zM664.2 406c0 22-6.9 38.8-20.6 50.5C629.8 468.2 610 474 584 474h-41.6V340.6h46.1c24 0 42.6 5.7 55.8 17.2 13.3 11.5 19.9 27.6 19.9 48.2z m-32.3 0.7c0-28.7-13.9-43-41.8-43h-16.6v86.9h13.3c30.1 0 45.1-14.6 45.1-43.9zM407.1 631.4c0 22.1-6 39.1-18.1 50.9s-29.3 17.8-51.8 17.8-39.7-5.9-51.8-17.8-18.1-28.9-18.1-51.1c0-22.2 6-39.2 18.1-50.9 12.1-11.7 29.4-17.6 51.9-17.6s39.8 5.9 51.7 17.7c12.1 11.9 18.1 28.8 18.1 51z m-107.1 0c0 14.9 3.1 26.1 9.3 33.7 6.2 7.5 15.5 11.3 27.9 11.3 24.8 0 37.2-15 37.2-45 0-30.1-12.3-45.1-37-45.1-12.4 0-21.7 3.8-28 11.4-6.3 7.5-9.4 18.8-9.4 33.7zM555.5 698.3h-35.3L481.7 642l-13.1 8.6v47.6h-31.1V564.8h31.1v61l12.2-15.7 39.7-45.4H555l-51.2 59 51.7 74.6zM693.4 564.8v86.3c0 9.9-2.4 18.5-7.3 25.9-4.9 7.4-11.9 13.1-21 17.1-9.2 4-20 5.9-32.5 5.9-18.9 0-33.5-4.4-44-13.2-10.4-8.8-15.7-20.8-15.7-36.1v-86h31v81.7c0 10.3 2.3 17.8 6.8 22.6 4.5 4.8 12.1 7.2 22.6 7.2 10.2 0 17.5-2.4 22.1-7.3 4.6-4.8 6.9-12.4 6.9-22.8v-81.5h31.1z" fill="#ffffff" p-id="1405"></path></svg>