<?xml version="1.0" standalone="no"?><!DOCTYPE svg PUBLIC "-//W3C//DTD SVG 1.1//EN" "http://www.w3.org/Graphics/SVG/1.1/DTD/svg11.dtd"><svg t="1601352039397" class="icon" viewBox="0 0 1024 1024" version="1.1" xmlns="http://www.w3.org/2000/svg" p-id="7466" width="100" height="100" xmlns:xlink="http://www.w3.org/1999/xlink"><defs><style type="text/css"></style></defs><path d="M409.6 512H34.133333c-6.826667 0-13.653333-3.413333-17.066666-10.24-3.413333-6.826667 0-13.653333 3.413333-17.066667l204.8-204.8c6.826667-6.826667 17.066667-6.826667 23.893333-3.413333l238.933334 170.666667c3.413333 3.413333 6.826667 10.24 6.826666 13.653333 0 6.826667-3.413333 10.24-10.24 13.653333l-68.266666 34.133334c-3.413333 3.413333-6.826667 3.413333-6.826667 3.413333z m-334.506667-34.133333h327.68l40.96-20.48-204.8-146.773334L75.093333 477.866667z" fill="#ffffff" p-id="7467"></path><path d="M477.866667 477.866667c-6.826667 0-13.653333-3.413333-13.653334-10.24-3.413333-6.826667 0-17.066667 6.826667-23.893334l58.026667-30.72V307.2H238.933333c-10.24 0-17.066667-6.826667-17.066666-17.066667S228.693333 273.066667 238.933333 273.066667h307.2c10.24 0 17.066667 6.826667 17.066667 17.066666v136.533334c0 6.826667-3.413333 13.653333-10.24 13.653333l-68.266667 34.133333c0 3.413333-3.413333 3.413333-6.826666 3.413334zM477.866667 1024c-3.413333 0-10.24-3.413333-13.653334-3.413333l-204.8-204.8c-6.826667-6.826667-6.826667-17.066667 0-23.893334l187.733334-221.866666c3.413333-3.413333 6.826667-6.826667 13.653333-6.826667 3.413333 0 10.24 0 13.653333 3.413333l17.066667 17.066667c3.413333 3.413333 3.413333 6.826667 3.413333 13.653333v409.6c0 6.826667-3.413333 13.653333-10.24 17.066667H477.866667z m-180.906667-221.866667l163.84 163.84V607.573333l-163.84 194.56z" fill="#ffffff" p-id="7468"></path><path d="M273.066667 819.2c-10.24 0-17.066667-6.826667-17.066667-17.066667v-307.2c0-10.24 6.826667-17.066667 17.066667-17.066666h136.533333c6.826667 0 10.24 3.413333 13.653333 6.826666l51.2 85.333334c3.413333 6.826667 3.413333 17.066667-6.826666 23.893333-6.826667 3.413333-17.066667 3.413333-23.893334-6.826667L399.36 512H290.133333v290.133333c0 10.24-6.826667 17.066667-17.066666 17.066667z" fill="#ffffff" p-id="7469"></path><path d="M785.066667 750.933333c-3.413333 0-6.826667 0-10.24-3.413333l-221.866667-187.733333c-6.826667-3.413333-6.826667-10.24-6.826667-17.066667s3.413333-10.24 10.24-13.653333l34.133334-17.066667c3.413333 0 3.413333-3.413333 6.826666-3.413333H989.866667c6.826667 0 13.653333 3.413333 17.066666 10.24 3.413333 6.826667 0 13.653333-3.413333 17.066666l-204.8 204.8c-3.413333 10.24-10.24 10.24-13.653333 10.24z m-191.146667-201.386666l191.146667 160.426666 163.84-163.84H600.746667l-6.826667 3.413334z" fill="#ffffff" p-id="7470"></path><path d="M785.066667 750.933333h-307.2c-10.24 0-17.066667-6.826667-17.066667-17.066666v-136.533334c0-6.826667 3.413333-10.24 6.826667-13.653333l85.333333-51.2c6.826667-3.413333 17.066667-3.413333 23.893333 6.826667s3.413333 17.066667-6.826666 23.893333l-78.506667 47.786667V716.8H785.066667c10.24 0 17.066667 6.826667 17.066666 17.066667s-6.826667 17.066667-17.066666 17.066666z" fill="#ffffff" p-id="7471"></path><path d="M546.133333 460.8h-6.826666c-6.826667-3.413333-10.24-10.24-10.24-17.066667V17.066667c0-6.826667 3.413333-13.653333 10.24-17.066667 6.826667 0 13.653333 0 20.48 6.826667l204.8 238.933333c6.826667 6.826667 6.826667 17.066667 0 23.893333l-204.8 187.733334c-6.826667 3.413333-10.24 3.413333-13.653334 3.413333z m17.066667-395.946667v341.333334l163.84-150.186667-163.84-191.146667z" fill="#ffffff" p-id="7472"></path><path d="M750.933333 546.133333h-170.666666c-6.826667 0-13.653333-3.413333-17.066667-10.24l-34.133333-85.333333c-3.413333-10.24 0-17.066667 10.24-23.893333 10.24-3.413333 17.066667 0 23.893333 10.24l30.72 75.093333h143.36V256c-3.413333-10.24 3.413333-17.066667 13.653333-17.066667s17.066667 6.826667 17.066667 17.066667v273.066667c0 10.24-6.826667 17.066667-17.066667 17.066666z" fill="#ffffff" p-id="7473"></path></svg>