<?xml version="1.0" standalone="no"?><!DOCTYPE svg PUBLIC "-//W3C//DTD SVG 1.1//EN" "http://www.w3.org/Graphics/SVG/1.1/DTD/svg11.dtd"><svg t="1601460933671" class="icon" viewBox="0 0 1024 1024" version="1.1" xmlns="http://www.w3.org/2000/svg" p-id="6827" xmlns:xlink="http://www.w3.org/1999/xlink" width="100" height="100"><defs><style type="text/css"></style></defs><path d="M115.8 361.9h795.8" fill="#ffffff" p-id="6828"></path><path d="M911.6 379.3H115.8c-9.6 0-17.4-7.8-17.4-17.4 0-9.6 7.8-17.4 17.4-17.4h795.8c9.6 0 17.4 7.8 17.4 17.4 0 9.6-7.8 17.4-17.4 17.4z" fill="#ffffff" p-id="6829"></path><path d="M115.8 664.6h795.8" fill="#ffffff" p-id="6830"></path><path d="M911.6 681.9H115.8c-9.6 0-17.4-7.8-17.4-17.4s7.8-17.4 17.4-17.4h795.8c9.6 0 17.4 7.8 17.4 17.4s-7.8 17.4-17.4 17.4z" fill="#ffffff" p-id="6831"></path><path d="M362.4 911.1V115.3" fill="#ffffff" p-id="6832"></path><path d="M362.4 928.5c-9.6 0-17.4-7.8-17.4-17.4V115.3c0-9.6 7.8-17.4 17.4-17.4 9.6 0 17.4 7.8 17.4 17.4v795.8c0 9.6-7.8 17.4-17.4 17.4z" fill="#ffffff" p-id="6833"></path><path d="M665.1 911.1V115.3" fill="#ffffff" p-id="6834"></path><path d="M665.1 928.5c-9.6 0-17.4-7.8-17.4-17.4V115.3c0-9.6 7.8-17.4 17.4-17.4s17.4 7.8 17.4 17.4v795.8c-0.1 9.6-7.8 17.4-17.4 17.4z" fill="#ffffff" p-id="6835"></path><path d="M224.6 307.1c-41.9 0-75.9-34.1-75.9-75.9s34.1-75.9 75.9-75.9 75.9 34.1 75.9 75.9-34.1 75.9-75.9 75.9z m0-117.1c-22.7 0-41.1 18.5-41.1 41.1s18.5 41.1 41.1 41.1c22.7 0 41.1-18.5 41.1-41.1S247.2 190 224.6 190z" fill="#ffffff" p-id="6836"></path><path d="M506.3 588.8c-41.9 0-75.9-34-75.9-75.9s34.1-75.9 75.9-75.9 75.9 34.1 75.9 75.9-34.1 75.9-75.9 75.9z m0-117.1c-22.7 0-41.1 18.5-41.1 41.1 0 22.7 18.5 41.1 41.1 41.1 22.7 0 41.1-18.5 41.1-41.1s-18.4-41.1-41.1-41.1z" fill="#ffffff" p-id="6837"></path><path d="M760.3 881.3c-4.4 0-8.9-1.7-12.3-5.1-6.8-6.8-6.8-17.8 0-24.6l91.6-91.6c6.8-6.8 17.8-6.8 24.6 0s6.8 17.8 0 24.6l-91.6 91.6c-3.4 3.4-7.8 5.1-12.3 5.1z" fill="#ffffff" p-id="6838"></path><path d="M851.9 881.3c-4.4 0-8.9-1.7-12.3-5.1L748 784.6c-6.8-6.8-6.8-17.8 0-24.6s17.8-6.8 24.6 0l91.6 91.6c6.8 6.8 6.8 17.8 0 24.6-3.4 3.4-7.8 5.1-12.3 5.1z" fill="#ffffff" p-id="6839"></path><path d="M467.9 881.3c-4.4 0-8.9-1.7-12.3-5.1-6.8-6.8-6.8-17.8 0-24.6l91.6-91.6c6.8-6.8 17.8-6.8 24.6 0s6.8 17.8 0 24.6l-91.6 91.6c-3.4 3.4-7.8 5.1-12.3 5.1z" fill="#ffffff" p-id="6840"></path><path d="M559.5 881.3c-4.4 0-8.9-1.7-12.3-5.1l-91.6-91.6c-6.8-6.8-6.8-17.8 0-24.6s17.8-6.8 24.6 0l91.6 91.6c6.8 6.8 6.8 17.8 0 24.6-3.4 3.4-7.8 5.1-12.3 5.1z" fill="#ffffff" p-id="6841"></path></svg>